<svg width="337" height="55" viewBox="0 0 337 55" fill="none" xmlns="http://www.w3.org/2000/svg">
<path d="M65.404 41.432C63.22 41.432 61.312 41.12 59.68 40.496C58.072 39.848 56.584 38.828 55.216 37.436L59.716 32.936C60.652 33.824 61.636 34.508 62.668 34.988C63.7 35.444 64.804 35.672 65.98 35.672C66.964 35.672 67.708 35.528 68.212 35.24C68.716 34.928 68.968 34.508 68.968 33.98C68.968 33.452 68.752 33.02 68.32 32.684C67.888 32.324 67.312 32.012 66.592 31.748C65.896 31.46 65.116 31.172 64.252 30.884C63.412 30.596 62.572 30.248 61.732 29.84C60.892 29.432 60.112 28.94 59.392 28.364C58.696 27.764 58.132 27.032 57.7 26.168C57.268 25.28 57.052 24.2 57.052 22.928C57.052 21.272 57.448 19.844 58.24 18.644C59.032 17.444 60.148 16.532 61.588 15.908C63.028 15.26 64.72 14.936 66.664 14.936C68.584 14.936 70.36 15.248 71.992 15.872C73.648 16.472 75.016 17.336 76.096 18.464L71.56 22.964C70.768 22.196 69.976 21.632 69.184 21.272C68.392 20.888 67.528 20.696 66.592 20.696C65.848 20.696 65.248 20.816 64.792 21.056C64.36 21.296 64.144 21.656 64.144 22.136C64.144 22.64 64.36 23.06 64.792 23.396C65.224 23.708 65.788 23.996 66.484 24.26C67.204 24.524 67.984 24.8 68.824 25.088C69.688 25.376 70.54 25.724 71.38 26.132C72.22 26.516 72.988 27.02 73.684 27.644C74.404 28.244 74.98 29 75.412 29.912C75.844 30.824 76.06 31.928 76.06 33.224C76.06 35.84 75.124 37.868 73.252 39.308C71.404 40.724 68.788 41.432 65.404 41.432ZM88.6735 41.432C86.9455 41.432 85.4095 41.096 84.0655 40.424C82.7455 39.752 81.7015 38.816 80.9335 37.616C80.1655 36.416 79.7815 35.048 79.7815 33.512V23.288H86.8375V33.584C86.8375 33.944 86.9095 34.268 87.0535 34.556C87.2215 34.844 87.4375 35.072 87.7015 35.24C87.9895 35.384 88.3135 35.456 88.6735 35.456C89.1775 35.456 89.5975 35.288 89.9335 34.952C90.2935 34.592 90.4735 34.136 90.4735 33.584V23.288H97.5295V33.512C97.5295 35.072 97.1455 36.452 96.3775 37.652C95.6335 38.828 94.5895 39.752 93.2455 40.424C91.9255 41.096 90.4015 41.432 88.6735 41.432ZM112.957 41.36C111.901 41.36 110.905 41.192 109.969 40.856C109.033 40.496 108.241 40.004 107.593 39.38C106.945 38.756 106.525 38.036 106.333 37.22V27.428C106.525 26.612 106.945 25.868 107.593 25.196C108.241 24.5 109.033 23.948 109.969 23.54C110.905 23.132 111.901 22.928 112.957 22.928C114.709 22.928 116.233 23.324 117.529 24.116C118.849 24.884 119.869 25.964 120.589 27.356C121.333 28.748 121.705 30.344 121.705 32.144C121.705 33.944 121.333 35.54 120.589 36.932C119.869 38.3 118.849 39.38 117.529 40.172C116.233 40.964 114.709 41.36 112.957 41.36ZM111.625 35.168C112.201 35.168 112.717 35.036 113.173 34.772C113.629 34.508 113.977 34.148 114.217 33.692C114.481 33.236 114.613 32.72 114.613 32.144C114.613 31.544 114.481 31.028 114.217 30.596C113.977 30.14 113.629 29.78 113.173 29.516C112.741 29.252 112.237 29.12 111.661 29.12C111.085 29.12 110.569 29.252 110.113 29.516C109.681 29.756 109.333 30.104 109.069 30.56C108.829 31.016 108.709 31.544 108.709 32.144C108.709 32.72 108.829 33.236 109.069 33.692C109.309 34.148 109.645 34.508 110.077 34.772C110.533 35.036 111.049 35.168 111.625 35.168ZM102.049 48.56V23.288H109.105V27.644L107.953 31.928L108.925 36.248V48.56H102.049ZM134.57 41.432C132.626 41.432 130.886 41.036 129.35 40.244C127.838 39.428 126.638 38.312 125.75 36.896C124.886 35.48 124.454 33.884 124.454 32.108C124.454 30.332 124.886 28.748 125.75 27.356C126.614 25.964 127.802 24.872 129.314 24.08C130.85 23.264 132.59 22.856 134.534 22.856C136.478 22.856 138.206 23.264 139.718 24.08C141.23 24.872 142.418 25.964 143.282 27.356C144.17 28.748 144.614 30.332 144.614 32.108C144.614 33.884 144.182 35.48 143.318 36.896C142.454 38.312 141.266 39.428 139.754 40.244C138.242 41.036 136.514 41.432 134.57 41.432ZM134.534 35.24C135.134 35.24 135.65 35.12 136.082 34.88C136.538 34.616 136.886 34.256 137.126 33.8C137.366 33.32 137.486 32.768 137.486 32.144C137.486 31.52 137.354 30.98 137.09 30.524C136.85 30.044 136.514 29.684 136.082 29.444C135.65 29.18 135.134 29.048 134.534 29.048C133.958 29.048 133.442 29.18 132.986 29.444C132.554 29.708 132.206 30.08 131.942 30.56C131.702 31.016 131.582 31.556 131.582 32.18C131.582 32.78 131.702 33.32 131.942 33.8C132.206 34.256 132.554 34.616 132.986 34.88C133.442 35.12 133.958 35.24 134.534 35.24ZM148.426 41V23.288H155.482V41H148.426ZM155.482 31.424L152.206 28.508C153.118 26.588 154.174 25.184 155.374 24.296C156.598 23.384 158.122 22.928 159.946 22.928C160.762 22.928 161.458 23.024 162.034 23.216C162.634 23.408 163.114 23.684 163.474 24.044L159.514 29.66C159.346 29.468 159.094 29.312 158.758 29.192C158.446 29.048 158.074 28.976 157.642 28.976C156.922 28.976 156.382 29.192 156.022 29.624C155.662 30.032 155.482 30.632 155.482 31.424ZM168.698 41V16.016H175.754V41H168.698ZM164.918 29.048V23.288H179.534V29.048H164.918ZM192.101 41.432C190.037 41.432 188.225 41.048 186.665 40.28C185.105 39.488 183.881 38.396 182.993 37.004C182.129 35.588 181.697 33.968 181.697 32.144C181.697 30.344 182.117 28.748 182.957 27.356C183.821 25.964 184.997 24.872 186.485 24.08C187.973 23.264 189.653 22.856 191.525 22.856C193.373 22.856 195.005 23.24 196.421 24.008C197.837 24.752 198.941 25.796 199.733 27.14C200.549 28.484 200.957 30.02 200.957 31.748C200.957 32.108 200.933 32.492 200.885 32.9C200.861 33.284 200.789 33.74 200.669 34.268L184.685 34.376V30.056L198.041 29.948L194.765 31.856C194.765 30.896 194.645 30.116 194.405 29.516C194.189 28.892 193.853 28.424 193.397 28.112C192.941 27.8 192.365 27.644 191.669 27.644C190.949 27.644 190.325 27.824 189.797 28.184C189.269 28.544 188.861 29.06 188.573 29.732C188.309 30.404 188.177 31.22 188.177 32.18C188.177 33.164 188.321 33.992 188.609 34.664C188.921 35.312 189.365 35.804 189.941 36.14C190.517 36.476 191.237 36.644 192.101 36.644C192.941 36.644 193.673 36.512 194.297 36.248C194.945 35.96 195.533 35.516 196.061 34.916L199.589 38.408C198.701 39.416 197.633 40.172 196.385 40.676C195.137 41.18 193.709 41.432 192.101 41.432Z" fill="#464646"/>
<path d="M225.877 41.504C223.861 41.504 222.001 41.168 220.297 40.496C218.617 39.824 217.141 38.888 215.869 37.688C214.621 36.488 213.649 35.072 212.953 33.44C212.257 31.808 211.909 30.044 211.909 28.148C211.909 26.228 212.245 24.464 212.917 22.856C213.613 21.248 214.585 19.844 215.833 18.644C217.081 17.444 218.545 16.52 220.225 15.872C221.929 15.2 223.789 14.864 225.805 14.864C227.821 14.864 229.669 15.2 231.349 15.872C233.053 16.52 234.529 17.444 235.777 18.644C237.025 19.844 237.985 21.26 238.657 22.892C239.353 24.5 239.701 26.264 239.701 28.184C239.701 30.08 239.353 31.844 238.657 33.476C237.985 35.084 237.025 36.5 235.777 37.724C234.529 38.924 233.065 39.86 231.385 40.532C229.705 41.18 227.869 41.504 225.877 41.504ZM225.805 35.168C227.149 35.168 228.313 34.88 229.297 34.304C230.281 33.728 231.037 32.912 231.565 31.856C232.093 30.8 232.357 29.564 232.357 28.148C232.357 27.092 232.201 26.144 231.889 25.304C231.601 24.44 231.169 23.708 230.593 23.108C230.017 22.484 229.321 22.016 228.505 21.704C227.713 21.368 226.813 21.2 225.805 21.2C224.461 21.2 223.297 21.488 222.313 22.064C221.329 22.616 220.573 23.42 220.045 24.476C219.517 25.508 219.253 26.732 219.253 28.148C219.253 29.228 219.397 30.2 219.685 31.064C219.997 31.928 220.441 32.672 221.017 33.296C221.593 33.896 222.277 34.364 223.069 34.7C223.885 35.012 224.797 35.168 225.805 35.168ZM255.122 41V31.064C255.122 30.368 254.918 29.84 254.51 29.48C254.126 29.096 253.634 28.904 253.034 28.904C252.626 28.904 252.254 28.988 251.918 29.156C251.606 29.324 251.354 29.576 251.162 29.912C250.994 30.224 250.91 30.608 250.91 31.064L248.174 29.84C248.174 28.4 248.486 27.164 249.11 26.132C249.758 25.1 250.634 24.308 251.738 23.756C252.866 23.204 254.138 22.928 255.554 22.928C256.826 22.928 257.954 23.216 258.938 23.792C259.946 24.344 260.738 25.112 261.314 26.096C261.89 27.056 262.178 28.172 262.178 29.444V41H255.122ZM243.854 41V23.288H250.91V41H243.854ZM266.814 41V14.648H273.87V41H266.814ZM278.839 41V23.288H285.895V41H278.839ZM282.367 21.632C281.335 21.632 280.471 21.284 279.775 20.588C279.103 19.868 278.767 18.992 278.767 17.96C278.767 16.928 279.103 16.064 279.775 15.368C280.471 14.648 281.335 14.288 282.367 14.288C283.423 14.288 284.287 14.648 284.959 15.368C285.631 16.064 285.967 16.928 285.967 17.96C285.967 18.992 285.631 19.868 284.959 20.588C284.287 21.284 283.423 21.632 282.367 21.632ZM302.134 41V31.064C302.134 30.368 301.93 29.84 301.522 29.48C301.138 29.096 300.646 28.904 300.046 28.904C299.638 28.904 299.266 28.988 298.93 29.156C298.618 29.324 298.366 29.576 298.174 29.912C298.006 30.224 297.922 30.608 297.922 31.064L295.186 29.84C295.186 28.4 295.498 27.164 296.122 26.132C296.77 25.1 297.646 24.308 298.75 23.756C299.878 23.204 301.15 22.928 302.566 22.928C303.838 22.928 304.966 23.216 305.95 23.792C306.958 24.344 307.75 25.112 308.326 26.096C308.902 27.056 309.19 28.172 309.19 29.444V41H302.134ZM290.866 41V23.288H297.922V41H290.866ZM323.042 41.432C320.978 41.432 319.166 41.048 317.606 40.28C316.046 39.488 314.822 38.396 313.934 37.004C313.07 35.588 312.638 33.968 312.638 32.144C312.638 30.344 313.058 28.748 313.898 27.356C314.762 25.964 315.938 24.872 317.426 24.08C318.914 23.264 320.594 22.856 322.466 22.856C324.314 22.856 325.946 23.24 327.362 24.008C328.778 24.752 329.882 25.796 330.674 27.14C331.49 28.484 331.898 30.02 331.898 31.748C331.898 32.108 331.874 32.492 331.826 32.9C331.802 33.284 331.73 33.74 331.61 34.268L315.626 34.376V30.056L328.982 29.948L325.706 31.856C325.706 30.896 325.586 30.116 325.346 29.516C325.13 28.892 324.794 28.424 324.338 28.112C323.882 27.8 323.306 27.644 322.61 27.644C321.89 27.644 321.266 27.824 320.738 28.184C320.21 28.544 319.802 29.06 319.514 29.732C319.25 30.404 319.118 31.22 319.118 32.18C319.118 33.164 319.262 33.992 319.55 34.664C319.862 35.312 320.306 35.804 320.882 36.14C321.458 36.476 322.178 36.644 323.042 36.644C323.882 36.644 324.614 36.512 325.238 36.248C325.886 35.96 326.474 35.516 327.002 34.916L330.53 38.408C329.642 39.416 328.574 40.172 327.326 40.676C326.078 41.18 324.65 41.432 323.042 41.432Z" fill="#0073B4"/>
<path d="M23 42.4V45.2C26.2788 45.2 28.8828 44.0058 30.8722 42.4H23Z" fill="#464646"/>
<path d="M9 28.4V31.2C9 34.7 11.8 35.4 11.8 35.4C11.8 35.4 14.6 43.8 23 43.8" stroke="#464646" stroke-width="2" stroke-miterlimit="10" stroke-linecap="round"/>
<path d="M38.4001 29.8H34.2001C34.2001 21.064 30.0001 17.2 30.0001 17.2C25.8001 27 11.8001 20 11.8001 29.8H7.6001C7.6001 29.8 7.6001 29.6348 7.6001 24.2C7.6001 14.4 16.0001 8.8 23.0001 8.8C28.6001 8.8 30.0001 11.6 30.0001 11.6C35.6001 11.6 38.4001 18.6 38.4001 24.2V29.8Z" fill="#464646"/>
<path d="M23.7 35.4C23.4536 35.4 22.5464 35.4 22.3 35.4C21.1408 35.4 20.2 36.3408 20.2 37.5C20.2 38.6592 21.1408 39.6 22.3 39.6C22.5464 39.6 23.4536 39.6 23.7 39.6C24.8592 39.6 25.8 38.6592 25.8 37.5C25.8 36.3408 24.8592 35.4 23.7 35.4Z" fill="#464646"/>
<path d="M24.3999 38.2H31.3999C34.4925 38.2 36.9999 35.6926 36.9999 32.6V28.4" stroke="#464646" stroke-width="2" stroke-miterlimit="10" stroke-linecap="round"/>
<path d="M37 34H34.2V27H37C38.547 27 39.8 28.253 39.8 29.8V31.2C39.8 32.747 38.547 34 37 34Z" fill="#464646"/>
</svg>
